<svg width="46" height="46" viewBox="0 0 46 46" fill="none" xmlns="http://www.w3.org/2000/svg">
<path d="M1.48383 22.9999C1.48383 17.2494 3.75591 12.0227 7.44373 8.15902L37.6213 38.7619C37.502 38.8727 37.3825 38.9838 37.2604 39.0921C37.2007 39.1451 37.1395 39.1968 37.0794 39.249C36.8057 39.4869 36.5256 39.7173 36.2402 39.941C36.1654 39.9994 36.0922 40.0593 36.0167 40.1167C35.8769 40.2234 35.7345 40.3268 35.5922 40.43C35.4883 40.5053 35.3838 40.5798 35.2786 40.6532C35.1419 40.7487 35.0049 40.8437 34.8659 40.9361C34.7294 41.0268 34.5907 41.1141 34.4522 41.2016C34.2589 41.3237 34.0636 41.4428 33.8662 41.559C33.7126 41.6491 33.559 41.739 33.4031 41.8255C33.2802 41.8936 33.1563 41.9599 33.0319 42.0257C32.8739 42.1094 32.7147 42.1908 32.5544 42.2707C32.4405 42.3273 32.3273 42.3849 32.2124 42.4394C31.9523 42.5633 31.6901 42.6829 31.4244 42.7963C31.3371 42.8337 31.2482 42.8677 31.1604 42.9041C30.9566 42.9878 30.7516 43.0695 30.545 43.147C30.4382 43.1872 30.3312 43.2261 30.2239 43.2645C30.0094 43.3413 29.7936 43.4143 29.576 43.4842C29.4935 43.5108 29.4116 43.5392 29.3287 43.5648C29.034 43.6557 28.7365 43.7402 28.4367 43.8185C28.3579 43.8393 28.278 43.8575 28.1989 43.8772C27.9624 43.9361 27.7248 43.9914 27.4854 44.0423C27.3904 44.0625 27.2954 44.0825 27.2002 44.1014C26.9276 44.1555 26.6534 44.2049 26.3774 44.2486C26.3339 44.2556 26.2909 44.264 26.2473 44.2707C25.9271 44.3193 25.6043 44.3597 25.2796 44.3941C25.198 44.4028 25.1158 44.4094 25.0341 44.4171C24.7794 44.4409 24.5234 44.4606 24.2661 44.4757C24.1773 44.4808 24.0887 44.4865 23.9996 44.4906C23.6681 44.5057 23.3352 44.5159 22.9999 44.5159C11.1359 44.5159 1.48383 34.8639 1.48383 22.9999ZM41.4067 39.6935C41.1676 39.6935 40.94 39.7403 40.7303 39.8225L39.7027 38.7951C39.705 38.7928 39.7073 38.7903 39.7093 38.7877C43.6066 34.6654 46 29.1072 46 23.0001H44.5159C44.5159 26.1537 43.8283 29.1477 42.6043 31.8491C42.1857 32.7723 41.7042 33.6609 41.1648 34.5095C41.1581 34.52 41.1512 34.5308 41.1443 34.5413C40.7469 35.1642 40.3181 35.7653 39.8606 36.3426C39.8461 36.3607 39.8317 36.3794 39.8171 36.3976C39.6707 36.5812 39.5212 36.7622 39.3691 36.9409C39.3466 36.9672 39.3233 36.9933 39.3008 37.0197C39.0898 37.2647 38.8722 37.5033 38.6507 37.7386L8.47749 7.1401C12.3076 3.62996 17.4073 1.48383 22.9999 1.48383L23.0001 1.90735e-06C17.0023 1.90735e-06 11.5358 2.31049 7.43681 6.08483L6.36388 4.99679C6.41764 4.82424 6.44811 4.64171 6.44811 4.45149C6.44811 3.4272 5.61787 2.5967 4.59332 2.5967C3.56903 2.5967 2.73853 3.4272 2.73853 4.45149C2.73853 5.47604 3.56903 6.30653 4.59332 6.30653C4.83243 6.30653 5.06002 6.25968 5.26995 6.17725L6.29732 7.20487C2.39625 11.3279 0 16.8892 0 22.9999C0 35.6821 10.3177 46 22.9999 46C23.3621 46 23.7223 45.9905 24.0802 45.9739C24.1015 45.9729 24.123 45.9724 24.1442 45.9713C24.4886 45.9544 24.8306 45.9288 25.1708 45.8968C25.2044 45.8935 25.2382 45.8912 25.272 45.8879C25.6037 45.8551 25.9332 45.8144 26.2607 45.7678C26.3009 45.7619 26.341 45.7568 26.381 45.7509C26.7043 45.703 27.0251 45.648 27.3436 45.5868C27.3858 45.5786 27.4281 45.5707 27.47 45.5625C27.7872 45.4998 28.1021 45.4301 28.4145 45.3546C28.4557 45.3446 28.4966 45.3346 28.5376 45.3244C28.8515 45.2466 29.1628 45.1623 29.4715 45.0715C29.5076 45.061 29.5435 45.0502 29.5796 45.0395C29.8929 44.9458 30.2035 44.8459 30.5109 44.7394C30.5388 44.7297 30.5667 44.7194 30.5946 44.7097C30.9098 44.5991 31.2219 44.4826 31.5306 44.3587C31.5467 44.3523 31.5629 44.3454 31.5793 44.339C31.899 44.21 32.2154 44.0743 32.528 43.9314C34.1406 43.1944 35.6539 42.2758 37.0415 41.2029C37.043 41.2016 37.0448 41.2003 37.0463 41.1993C37.3215 40.9863 37.5916 40.7672 37.8566 40.5424C37.8599 40.5396 37.8633 40.5368 37.8666 40.5339C38.1308 40.3097 38.3899 40.0795 38.6436 39.8435C38.6454 39.8422 38.6469 39.8407 38.6484 39.8394L39.6809 40.8719C39.5987 41.0816 39.5519 41.3094 39.5519 41.5483C39.5519 42.5725 40.3824 43.403 41.4067 43.403C42.431 43.403 43.2615 42.5725 43.2615 41.5483C43.2615 40.524 42.431 39.6935 41.4067 39.6935Z" fill="white"/>
<path d="M21.7652 22.9999H26.5948V41.4979C25.4297 41.7232 24.2275 41.845 22.9964 41.845C22.5822 41.845 22.1725 41.8269 21.7652 41.8008V28.6818V22.9999Z" fill="#ED1D24"/>
<path d="M29.5305 17.2233V5.3199C36.7175 7.97702 41.8415 14.8895 41.8415 22.9999C41.8415 29.1393 38.9043 34.591 34.3602 38.0317V17.2233H29.5305Z" fill="#0092C8"/>
<path d="M15.3257 5.78734V28.682V40.2126C8.74217 37.2739 4.15115 30.6753 4.15115 22.9999C4.15115 15.3247 8.74217 8.72581 15.3257 5.78734Z" fill="#0092C8"/>
<path d="M26.5949 17.2233V22.9999H21.7653V4.19935C22.1726 4.17298 22.5822 4.15481 22.9964 4.15481C25.2939 4.15481 27.4948 4.56724 29.5306 5.3199V17.2233H26.5949Z" fill="#003D58"/>
<path d="M21.7652 28.6819V41.8006C19.4839 41.6534 17.3145 41.1001 15.3256 40.2126V28.6819H21.7652Z" fill="white"/>
<path d="M21.7652 23V28.6818H15.3256V5.78743C17.3145 4.89959 19.4839 4.34661 21.7652 4.19915V23Z" fill="#FEDA00"/>
<path d="M26.5949 17.2233H29.5305H34.3602V38.0317C32.1119 39.7339 29.4699 40.9415 26.5949 41.4979V22.9999V17.2233Z" fill="white"/>
</svg>
