<svg width="512" height="512" viewBox="0 0 512 512" fill="none" xmlns="http://www.w3.org/2000/svg">
<rect width="512" height="512" rx="10" fill="white"/>
<g clip-path="url(#clip0_155_30)">
<path d="M473.175 383.101H415.717V142.817C415.717 123.238 400.253 107.301 381.242 107.301H300.8V153.267H369.75V429.067H473.175C479.524 429.067 484.667 423.925 484.667 417.576V394.592C484.667 388.243 479.524 383.101 473.175 383.101ZM249.26 62.0594L111.36 97.7841C101.125 100.434 93.95 109.958 93.95 120.89V383.101H36.4917C30.1425 383.101 25 388.243 25 394.592V417.576C25 423.925 30.1425 429.067 36.4917 429.067H277.817V85.1649C277.817 69.6655 263.768 58.2959 249.26 62.0594ZM214.612 268.184C205.096 268.184 197.375 257.892 197.375 245.201C197.375 232.51 205.096 222.217 214.612 222.217C224.129 222.217 231.85 232.51 231.85 245.201C231.85 257.892 224.129 268.184 214.612 268.184Z" fill="#0092C8"/>
</g>
<path fill-rule="evenodd" clip-rule="evenodd" d="M111.68 429.067V97.7012L156.333 86.1332V429.067H111.68Z" fill="#FEDA00"/>
<path fill-rule="evenodd" clip-rule="evenodd" d="M153.707 86.8135L203.969 73.7924V227.122C199.955 231.331 197.375 237.865 197.375 245.201C197.375 252.536 199.955 259.07 203.969 263.279V429.067H153.707V86.8135Z" fill="#003D58"/>
<path fill-rule="evenodd" clip-rule="evenodd" d="M153.707 287.364V429.067H203.969V360.426C199.955 358.683 197.375 355.978 197.375 352.941C197.375 349.904 199.955 347.198 203.969 345.456V281.973L153.707 287.364Z" fill="#ED1D24"/>
<path fill-rule="evenodd" clip-rule="evenodd" d="M111.68 429.067V286.935L153.707 281.973V429.067H111.68Z" fill="white"/>
<path d="M303.501 272.566C302.516 273.551 302.516 275.148 303.501 276.133L319.554 292.186C320.539 293.172 322.137 293.172 323.122 292.186C324.107 291.201 324.107 289.604 323.122 288.619L308.852 274.349L323.122 260.079C324.107 259.094 324.107 257.497 323.122 256.512C322.137 255.527 320.539 255.527 319.554 256.512L303.501 272.566ZM460.002 271.827H305.285V276.872H460.002V271.827Z" fill="#003D58"/>
<defs>
<clipPath id="clip0_155_30">
<rect width="459.667" height="367.733" fill="white" transform="translate(25 61.3334)"/>
</clipPath>
</defs>
</svg>
